<?xml version="1.0" encoding="UTF-8"?>
<svg width="600px" height="504px" viewBox="0 0 600 504" version="1.1" xmlns="http://www.w3.org/2000/svg" xmlns:xlink="http://www.w3.org/1999/xlink">
    <title>Illustration - Inceptionize</title>
    <g id="Page-1" stroke="none" stroke-width="1" fill="none" fill-rule="evenodd">
        <g id="Welcome-screen-V2" transform="translate(-720.000000, -155.000000)" fill-rule="nonzero">
            <g id="Illustration---Inceptionize">
                <g transform="translate(720.000000, 155.000000)">
                    <g id="Window_2_1_" transform="translate(60.911271, 30.215827)">
                        <rect id="XMLID_260_" fill="#EBF7FF" x="0.287769784" y="0" width="454.532374" height="349.736211"></rect>
                        <rect id="XMLID_258_" fill="#FFFFFF" x="32.8057554" y="67.1942446" width="102.877698" height="121.294964"></rect>
                        <path d="M37.4580336,182.302158 C37.3141487,182.302158 37.2182254,182.254197 37.0743405,182.158273 C36.8345324,181.966427 36.7865707,181.582734 37.0263789,181.342926 L128.872902,73.2374101 C129.064748,72.9976019 129.448441,72.9496403 129.688249,73.1894484 C129.928058,73.381295 129.976019,73.764988 129.736211,74.0047962 L37.8896882,182.110312 C37.793765,182.254197 37.6498801,182.302158 37.4580336,182.302158 Z" id="XMLID_2964_" fill="#BAE2FC"></path>
                        <path d="M129.304556,182.302158 C129.160671,182.302158 128.968825,182.254197 128.872902,182.110312 L37.0263789,74.0047962 C36.8345324,73.764988 36.8345324,73.4292566 37.0743405,73.1894484 C37.3141487,72.9976019 37.6498801,72.9976019 37.8896882,73.2374101 L129.736211,181.342926 C129.928058,181.582734 129.928058,181.918465 129.688249,182.158273 C129.544365,182.254197 129.448441,182.302158 129.304556,182.302158 Z" id="XMLID_2963_" fill="#BAE2FC"></path>
                        <rect id="XMLID_82_" fill="#BAE2FC" x="138.705036" y="33.2374101" width="102.06235" height="7.14628297"></rect>
                        <rect id="XMLID_81_" fill="#0079BC" x="32.8057554" y="27.0023981" width="30.7913669" height="22.1582734"></rect>
                        <rect id="XMLID_68_" fill="#FF2CA2" x="0.287769784" y="18.0335731" width="454.532374" height="1.10311751"></rect>
                        <path d="M385.227818,42.7817746 L285.515588,42.7817746 C284.796163,42.7817746 284.796163,43.8848921 285.515588,43.8848921 L385.227818,43.8848921 C385.947242,43.9328537 385.947242,42.7817746 385.227818,42.7817746 Z" id="XMLID_33_" fill="#FFFFFF"></path>
                        <path d="M385.227818,60.9592326 L285.515588,60.9592326 C284.796163,60.9592326 284.796163,62.0623501 285.515588,62.0623501 L385.227818,62.0623501 C385.947242,62.1103118 385.947242,60.9592326 385.227818,60.9592326 Z" id="XMLID_32_" fill="#FFFFFF"></path>
                        <path d="M363.932854,79.1366906 L285.419664,79.1366906 C284.844125,79.1366906 284.844125,80.2398082 285.419664,80.2398082 L363.932854,80.2398082 C364.508393,80.2398082 364.508393,79.1366906 363.932854,79.1366906 Z" id="XMLID_31_" fill="#FFFFFF"></path>
                        <path d="M363.932854,97.3141487 L285.419664,97.3141487 C284.844125,97.3141487 284.844125,98.4172662 285.419664,98.4172662 L363.932854,98.4172662 C364.508393,98.4172662 364.508393,97.3141487 363.932854,97.3141487 Z" id="XMLID_30_" fill="#FFFFFF"></path>
                        <path d="M363.932854,115.443645 L285.419664,115.443645 C284.844125,115.443645 284.844125,116.546763 285.419664,116.546763 L363.932854,116.546763 C364.508393,116.594724 364.508393,115.443645 363.932854,115.443645 Z" id="XMLID_29_" fill="#FFFFFF"></path>
                        <rect id="XMLID_28_" fill="#FFFFFF" x="270.88729" y="38.2733813" width="9.01678657" height="7.3381295"></rect>
                        <path d="M174.724221,296.019185 C170.119904,302.302158 162.829736,306.282974 155.107914,306.858513 C146.426859,307.529976 139.472422,303.117506 132.230216,298.944844 C126.18705,295.491607 118.657074,291.942446 111.606715,294.244604 C106.18705,296.019185 101.966427,301.199041 102.925659,307.002398 C103.021583,307.721823 104.1247,307.434053 104.028777,306.714628 C103.309353,302.302158 106.043165,298.321343 109.832134,296.258993 C113.81295,294.052758 118.609113,294.436451 122.829736,295.779376 C130.455635,298.177458 136.546763,303.645084 143.980815,306.426859 C155.395683,310.647482 168.585132,306.378897 175.731415,296.642686 C176.115108,296.019185 175.155875,295.443645 174.724221,296.019185 Z" id="XMLID_26_" fill="#FFFFFF"></path>
                        <path d="M175.29976,309.016787 C170.695444,315.29976 163.405276,319.280576 155.683453,319.856115 C147.002398,320.527578 140.047962,316.115108 132.805755,311.942446 C126.76259,308.489209 119.232614,304.940048 112.182254,307.242206 C106.76259,309.016787 102.541966,314.196643 103.501199,320 C103.597122,320.719424 104.70024,320.431655 104.604317,319.71223 C103.884892,315.29976 106.618705,311.318945 110.407674,309.256595 C114.388489,307.05036 119.184652,307.434053 123.405276,308.776978 C131.031175,311.17506 137.122302,316.642686 144.556355,319.42446 C155.971223,323.645084 169.160671,319.376499 176.306954,309.640288 C176.690647,308.968825 175.683453,308.393285 175.29976,309.016787 Z" id="XMLID_25_" fill="#FFFFFF"></path>
                        <path d="M170.59952,188.681055 L150.311751,188.681055 C149.592326,188.681055 149.592326,189.784173 150.311751,189.784173 L170.59952,189.784173 C171.318945,189.784173 171.318945,188.681055 170.59952,188.681055 Z" id="XMLID_24_" fill="#0079C2"></path>
                        <path d="M170.59952,197.122302 L150.311751,197.122302 C149.592326,197.122302 149.592326,198.22542 150.311751,198.22542 L170.59952,198.22542 C171.318945,198.273381 171.318945,197.122302 170.59952,197.122302 Z" id="XMLID_23_" fill="#0079C2"></path>
                        <path d="M170.59952,206.139089 L150.311751,206.139089 C149.592326,206.139089 149.592326,207.242206 150.311751,207.242206 L170.59952,207.242206 C171.318945,207.242206 171.318945,206.139089 170.59952,206.139089 Z" id="XMLID_20_" fill="#0079C2"></path>
                        <path d="M179.808153,277.314149 L103.213429,277.314149 L103.213429,225.083933 L179.808153,225.083933 L179.808153,277.314149 Z M104.316547,276.16307 L178.657074,276.16307 L178.657074,226.235012 L104.316547,226.235012 L104.316547,276.16307 Z" id="XMLID_2794_" fill="#FFFFFF"></path>
                        <path d="M396.211031,77.4580336 C386.426859,77.4580336 378.465228,85.4196643 378.465228,95.2038369 C378.465228,104.98801 386.426859,112.94964 396.211031,112.94964 C405.995204,112.94964 413.956835,104.98801 413.956835,95.2038369 C413.956835,83.9328537 407.482014,77.4580336 396.211031,77.4580336 Z M396.211031,114.052758 C385.803357,114.052758 377.36211,105.611511 377.36211,95.2038369 C377.36211,84.7961631 385.803357,76.3549161 396.211031,76.3549161 C408.201439,76.3549161 415.059952,83.2134293 415.059952,95.2038369 C415.059952,105.563549 406.618705,114.052758 396.211031,114.052758 Z" id="XMLID_2845_" fill="#BAE2FC"></path>
                    </g>
                    <g id="Letter_2" transform="translate(373.621103, 319.904077)">
                        <polygon id="XMLID_221_" fill="#83116D" transform="translate(58.829978, 31.442583) rotate(-11.191950) translate(-58.829978, -31.442583) " points="24.6567047 8.34864407 93.0032521 8.34864407 93.0032521 54.5365214 24.6567047 54.5365214"></polygon>
                        <path d="M33.5251799,55.971223 C33.381295,55.971223 33.2374101,55.9232614 33.0935252,55.7793765 C32.9016787,55.5395683 32.9016787,55.2038369 33.0935252,54.9640288 L83.6930456,7.05035971 C83.9328537,6.85851319 84.2685851,6.85851319 84.5083933,7.05035971 C84.7002398,7.29016787 84.7002398,7.62589928 84.5083933,7.86570743 L33.9088729,55.7793765 C33.764988,55.9232614 33.6211031,55.971223 33.5251799,55.971223 Z" id="XMLID_2947_" fill="#FFFFFF"></path>
                        <path d="M91.1270983,45.0359712 C91.0791367,45.0359712 90.9832134,45.0359712 90.9352518,44.9880096 L26.2829736,18.9448441 C25.9952038,18.8489209 25.8513189,18.5131894 25.9472422,18.2254197 C26.0431655,17.9376499 26.3788969,17.793765 26.6666667,17.8896882 L91.3189448,43.9328537 C91.6067146,44.028777 91.7505995,44.3645084 91.6546763,44.6522782 C91.558753,44.8920863 91.3669065,45.0359712 91.1270983,45.0359712 Z" id="XMLID_2946_" fill="#FFFFFF"></path>
                        <path d="M52.3261391,4.55635492 L20.6235012,10.8393285 C19.9040767,10.9832134 20.1438849,12.0863309 20.8633094,11.942446 L52.5659472,5.65947242 C53.2853717,5.51558753 53.0455635,4.41247002 52.3261391,4.55635492 Z" id="XMLID_220_" fill="#0079C2"></path>
                        <path d="M51.558753,0.479616307 L19.8561151,6.76258993 C19.1366906,6.90647482 19.3764988,8.00959233 20.0959233,7.86570743 L51.7985612,1.58273381 C52.470024,1.43884892 52.2302158,0.335731415 51.558753,0.479616307 Z" id="XMLID_219_" fill="#0079C2"></path>
                        <path d="M18.177458,16.1630695 L9.35251799,17.8896882 C8.63309353,18.0335731 8.87290168,19.1366906 9.59232614,18.9928058 L18.4172662,17.2661871 C19.1366906,17.1223022 18.8968825,16.0191847 18.177458,16.1630695 Z" id="XMLID_218_" fill="#0079C2"></path>
                        <path d="M18.5131894,20.4316547 L1.29496403,23.8369305 C-0.0959232614,24.1247002 0.143884892,25.2278177 1.53477218,24.940048 L18.7529976,21.5347722 C20.0959233,21.2470024 19.9040767,20.1438849 18.5131894,20.4316547 Z" id="XMLID_217_" fill="#0079C2"></path>
                    </g>
                    <g id="Graphic_2" transform="translate(424.460432, 232.134293)">
                        <polygon id="XMLID_2898_" fill="#EBF7FF" transform="translate(75.984542, 75.435391) rotate(-23.809490) translate(-75.984542, -75.435391) " points="18.7179054 19.5596525 133.251179 19.5596525 133.251179 131.311129 18.7179054 131.311129"></polygon>
                        <path d="M45.8513189,150.407674 L45.6115108,149.880096 L0.287769784,47.146283 L0.815347722,46.9064748 L106.091127,0.431654676 L106.330935,0.959232614 L151.654676,103.693046 L151.127098,103.932854 L45.8513189,150.407674 Z M1.77458034,47.7218225 L46.4268585,148.920863 L150.167866,103.117506 L105.515588,1.91846523 L1.77458034,47.7218225 Z" id="XMLID_2899_" fill="#FFFFFF"></path>
                        <polygon id="XMLID_216_" fill="#0079BC" transform="translate(60.611957, 39.315568) rotate(-23.809490) translate(-60.611957, -39.315568) " points="11.4269185 35.7423988 109.796995 35.7423988 109.796995 42.8887379 11.4269185 42.8887379"></polygon>
                        <polygon id="XMLID_215_" fill="#0079BC" transform="translate(65.496470, 50.283084) rotate(-23.809490) translate(-65.496470, -50.283084) " points="16.3114316 46.7099144 114.681508 46.7099144 114.681508 53.8562535 16.3114316 53.8562535"></polygon>
                        <polygon id="XMLID_214_" fill="#0079BC" transform="translate(82.519149, 88.928813) rotate(-23.809490) translate(-82.519149, -88.928813) " points="33.3341103 66.7703656 131.704187 66.7703656 131.704187 111.08726 33.3341103 111.08726"></polygon>
                        <polygon id="XMLID_213_" fill="#0079BC" transform="translate(57.464890, 66.550942) rotate(-23.809490) translate(-57.464890, -66.550942) " points="22.1648524 62.9777729 92.764927 62.9777729 92.764927 70.124112 22.1648524 70.124112"></polygon>
                        <g id="XMLID_245_" transform="translate(4.796163, 38.848921)" fill="#83116D">
                            <path d="M10.2158273,6.81055156 C7.1942446,5.56354916 4.17266187,4.31654676 1.10311751,3.06954436 C0.431654676,2.78177458 0.0479616307,3.83693046 0.71942446,4.12470024 C3.74100719,5.37170264 6.76258993,6.61870504 9.83213429,7.86570743 C10.5035971,8.15347722 10.8872902,7.09832134 10.2158273,6.81055156 Z" id="XMLID_212_"></path>
                            <path d="M4.12470024,10.2158273 C5.37170264,7.1942446 6.61870504,4.17266187 7.86570743,1.10311751 C8.15347722,0.431654676 7.09832134,0.0479616307 6.81055156,0.71942446 C5.56354916,3.74100719 4.31654676,6.76258993 3.06954436,9.83213429 C2.78177458,10.5035971 3.83693046,10.8872902 4.12470024,10.2158273 Z" id="XMLID_211_"></path>
                        </g>
                    </g>
                    <g id="Download" transform="translate(489.208633, 349.333333)" fill="#0079BC">
                        <polygon id="XMLID_2896_" points="13.3333333 2.99280576 44.2685851 0.067146283 48.2973621 31.8177458 40.7194245 25.6306954 20.8153477 49.7553957 0.431654676 32.9208633 20.3357314 8.79616307"></polygon>
                    </g>
                    <g id="Letter" transform="translate(408.163070, 349.160671)" fill="#FF8D00">
                        <polygon id="XMLID_2876_" transform="translate(70.878245, 62.098106) rotate(28.189773) translate(-70.878245, -62.098106) " points="12.0285081 23.2246651 129.727981 23.2246651 129.727981 100.971546 12.0285081 100.971546"></polygon>
                    </g>
                    <g id="Page" transform="translate(402.877698, 209.592326)">
                        <polygon id="XMLID_202_" fill="#FF2CA2" transform="translate(40.463892, 12.311981) rotate(20.328709) translate(-40.463892, -12.311981) " points="8.83370195 11.0170375 72.0940822 11.0170375 72.0940822 13.6069242 8.83370195 13.6069242"></polygon>
                        <polygon id="XMLID_201_" fill="#BAE2FC" transform="translate(37.862827, 19.309468) rotate(20.328709) translate(-37.862827, -19.309468) " points="6.2326372 18.0145243 69.4930175 18.0145243 69.4930175 20.604411 6.2326372 20.604411"></polygon>
                        <polygon id="XMLID_199_" fill="#BAE2FC" transform="translate(35.278424, 26.261981) rotate(20.328709) translate(-35.278424, -26.261981) " points="3.64823432 24.9670375 66.9086146 24.9670375 66.9086146 27.5569242 3.64823432 27.5569242"></polygon>
                        <polygon id="XMLID_198_" fill="#FFFFFF" transform="translate(46.790319, 54.562556) rotate(20.328709) translate(-46.790319, -54.562556) " points="35.9271831 49.2389004 57.6534548 49.2389004 57.6534548 59.8862123 35.9271831 59.8862123"></polygon>
                        <path d="M28.9688249,35.3956835 L5.75539568,44.3165468 L1.53477218,33.3333333 C1.29496403,32.6618705 0.239808153,33.0455635 0.479616307,33.7170264 C1.72661871,37.1702638 5.22781775,45.9952038 5.22781775,45.9952038 L29.4004796,36.4508393 C30.0239808,36.1630695 29.6402878,35.1079137 28.9688249,35.3956835 Z" id="XMLID_197_" fill="#BAE2FC"></path>
                    </g>
                    <g id="Shadows" transform="translate(65.707434, 472.422062)" fill="#0079BC">
                        <path d="M149.304556,0.3 L0.623501199,0.3 C-0.0959232614,0.3 -0.0959232614,1.45 0.623501199,1.45 L149.304556,1.45 C150.023981,1.5 150.023981,0.3 149.304556,0.3 Z" id="XMLID_102_"></path>
                        <path d="M489.11271,0.3 L180.863309,0.3 C179.376499,0.3 179.376499,1.45 180.863309,1.45 L489.11271,1.45 C490.59952,1.5 490.59952,0.3 489.11271,0.3 Z" id="XMLID_101_"></path>
                    </g>
                    <g id="Woman" transform="translate(63.309353, 75.779376)">
                        <g id="Neck" transform="translate(37.889688, 129.976019)">
                            <path d="M19.2326139,4.74820144 C18.8489209,5.08393285 14.2925659,22.4460432 14.2925659,22.4460432 L0.239808153,14.5803357 L9.83213429,0.239808153 L19.2326139,4.74820144 Z" id="XMLID_257_" fill="#952C28"></path>
                            <path d="M17.6498801,10.0239808 C18.4652278,7.14628297 19.088729,4.89208633 19.2326139,4.79616307 L15.7314149,3.117506 C15.4916067,5.56354916 16.0191847,8.39328537 17.6498801,10.0239808 Z" id="XMLID_252_" fill="#000000"></path>
                        </g>
                        <g id="Legs_1_" transform="translate(0.000000, 188.968825)">
                            <g id="XMLID_267_">
                                <path d="M20.6235012,0.527577938 C20.6235012,0.527577938 26.618705,-8.10551559 47.2901679,62.1103118 C67.9616307,132.326139 73.9568345,127.817746 53.6690647,163.501199 C33.381295,199.184652 43.5491607,197.314149 50.3117506,198.800959 C57.0743405,200.28777 56.3069544,208.920863 56.3069544,208.920863 L18.7529976,208.920863 C21.0071942,172.517986 35.6354916,130.455635 35.6354916,130.455635 C35.6354916,130.455635 19.8561151,100.431655 6.7146283,71.5107914 C-6.42685851,42.5899281 5.22781775,10.3117506 5.22781775,10.3117506 L20.6235012,0.527577938 Z" id="XMLID_175_" fill="#952C28"></path>
                                <path d="M22.1582734,182.254197 C29.4964029,182.110312 36.882494,182.206235 44.2206235,182.35012 C46.0911271,177.64988 49.1127098,171.510791 53.6690647,163.501199 C73.9568345,127.817746 67.9616307,132.326139 47.2901679,62.1103118 C26.6666667,-8.10551559 20.6235012,0.527577938 20.6235012,0.527577938 L5.22781775,10.3117506 C5.22781775,10.3117506 -6.42685851,42.5899281 6.7146283,71.5107914 C19.8561151,100.431655 35.6354916,130.455635 35.6354916,130.455635 C35.6354916,130.455635 27.2422062,154.628297 22.1582734,182.254197 Z" id="XMLID_172_" fill="#1F79B7"></path>
                                <path d="M50.3117506,198.800959 C47.3860911,198.129496 43.8369305,198.129496 42.3980815,195.443645 C39.9520384,196.546763 37.4580336,197.601918 34.8201439,198.129496 C29.9760192,199.088729 24.7961631,198.177458 19.8561151,197.601918 C19.3764988,201.438849 19.0407674,205.227818 18.8009592,208.968825 L56.3549161,208.968825 C56.3069544,208.920863 57.0743405,200.28777 50.3117506,198.800959 Z" id="XMLID_170_" fill="#1F79B7"></path>
                            </g>
                            <g id="XMLID_268_" transform="translate(6.714628, 0.000000)">
                                <path d="M39.4724221,0.527577938 C39.4724221,0.527577938 45.4676259,-8.10551559 66.1390887,62.1103118 C86.8105516,132.326139 92.8057554,127.817746 72.5179856,163.501199 C52.2302158,199.184652 62.3980815,197.314149 69.1606715,198.800959 C75.9232614,200.28777 75.1558753,208.920863 75.1558753,208.920863 L37.6019185,208.920863 C39.8561151,172.517986 54.4844125,130.455635 54.4844125,130.455635 C54.4844125,130.455635 38.705036,100.431655 25.5635492,71.5107914 C12.4220624,42.5899281 16.1630695,46.7146283 24.0767386,10.3117506 C24.0767386,10.3117506 24.0767386,10.3117506 24.0767386,10.3117506 L39.4724221,0.527577938 Z" id="XMLID_174_" fill="#952C28"></path>
                                <path d="M54.4844125,130.455635 C54.4844125,130.455635 46.0431655,154.772182 40.9592326,182.446043 C48.2494005,182.63789 55.4916067,182.877698 62.7817746,183.069544 C64.6043165,178.273381 67.7218225,171.942446 72.5179856,163.501199 C92.8057554,127.817746 86.8105516,132.326139 66.1390887,62.1103118 C45.4676259,-8.10551559 39.4724221,0.527577938 39.4724221,0.527577938 L24.0767386,10.3117506 C24.0767386,10.3117506 24.0767386,10.3117506 24.0767386,10.3117506 C16.2110312,46.7146283 12.4220624,42.5899281 25.5635492,71.5107914 C38.705036,100.383693 54.4844125,130.455635 54.4844125,130.455635 Z" id="XMLID_169_" fill="#1F79B7"></path>
                                <path d="M69.1127098,198.800959 C65.9952038,198.129496 62.206235,198.129496 60.9592326,194.916067 C58.8009592,195.8753 56.5947242,196.786571 54.3405276,197.505995 C49.1606715,199.136691 43.8369305,199.040767 38.5131894,198.561151 C38.0815348,202.06235 37.793765,205.515588 37.5539568,208.968825 L75.1079137,208.968825 C75.1558753,208.920863 75.8752998,200.28777 69.1127098,198.800959 Z" id="XMLID_168_" fill="#1F79B7"></path>
                                <path d="M37.9856115,199.136691 C37.9856115,201.678657 37.9856115,204.220624 37.9856115,206.76259 C37.9856115,207.146283 38.5611511,207.146283 38.5611511,206.76259 C38.5611511,204.220624 38.5611511,201.678657 38.5611511,199.136691 C38.5611511,198.800959 37.9856115,198.800959 37.9856115,199.136691 Z" id="XMLID_110_" fill="#FFFFFF"></path>
                                <path d="M53.8129496,137.170264 C53.7170264,137.36211 53.6211031,137.553957 53.5251799,137.745803 C53.381295,137.553957 53.2853717,137.36211 53.1414868,137.218225 C49.9760192,132.565947 46.9064748,127.865707 43.9328537,123.069544 C30.1678657,100.911271 18.6091127,77.4580336 9.30455635,53.0935252 C9.20863309,52.853717 9.11270983,52.6139089 9.01678657,52.3741007 L9.73621103,52.6618705 C9.83213429,52.9016787 9.92805755,53.1414868 10.0239808,53.381295 C12.4220624,59.616307 14.9160671,65.8033573 17.6019185,71.8944844 C27.529976,94.4844125 39.5203837,116.16307 53.381295,136.594724 C53.5731415,136.834532 53.6690647,137.026379 53.8129496,137.170264 Z" id="XMLID_108_" fill="#000000"></path>
                                <path d="M53.8129496,137.170264 C53.7170264,137.36211 53.6211031,137.553957 53.5251799,137.745803 C49.5443645,146.139089 46.8105516,155.059952 45.4196643,164.268585 C45.3717026,164.604317 44.8441247,164.460432 44.8920863,164.1247 C46.2829736,154.772182 49.0647482,145.707434 53.1894484,137.218225 C53.2853717,137.026379 53.381295,136.834532 53.4772182,136.642686 C53.5731415,136.834532 53.6690647,137.026379 53.8129496,137.170264 Z" id="XMLID_107_" fill="#000000"></path>
                                <path d="M10.0719424,53.4292566 C9.83213429,53.3333333 9.59232614,53.2374101 9.35251799,53.1414868 C6.37889688,51.8944844 3.45323741,50.647482 0.527577938,49.4004796 C0.191846523,49.2565947 0.479616307,48.7769784 0.815347722,48.9208633 C3.5971223,50.0719424 6.33093525,51.2709832 9.11270983,52.4220624 L9.83213429,52.7098321 C9.88009592,52.9496403 9.97601918,53.1894484 10.0719424,53.4292566 Z" id="XMLID_106_" fill="#000000"></path>
                            </g>
                        </g>
                        <path d="M51.7985612,142.925659 L72.8057554,148.201439 C72.8057554,148.201439 76.1630695,179.760192 70.1678657,184.604317 L69.4004796,218.417266 L0.67146283,203.021583 L17.9376499,132.805755 L51.7985612,142.925659 Z" id="Body_1_" fill="#FA922A"></path>
                        <g id="Hands" transform="translate(15.827338, 0.000000)">
                            <g id="Hand_3_" transform="translate(0.000000, 41.726619)">
                                <path d="M51.8944844,14.3884892 C38.5131894,22.206235 10.647482,39.7601918 7.09832134,47.529976 C2.9736211,56.5467626 -0.431654676,104.220624 0.335731415,107.242206 L31.1270983,104.604317 L34.8681055,61.0551559 L63.0695444,30.5995204 C59.3764988,25.1318945 55.5395683,19.8081535 51.8944844,14.3884892 Z" id="XMLID_256_" fill="#FA922A"></path>
                                <path d="M69.6882494,13.1894484 C69.6882494,9.0647482 69.6882494,4.94004796 69.6882494,0.863309353 C69.6882494,-0.239808153 68.82494,0.575539568 67.7218225,0.863309353 C61.4868106,2.63788969 56.7386091,6.04316547 55.4916067,12.2781775 C54.1007194,13.0455635 52.3741007,14.0527578 50.3597122,15.2517986 C53.9088729,21.0071942 57.6498801,26.6666667 61.5347722,32.1822542 L67.0503597,26.235012 C71.8465228,20.7194245 70.3117506,14.8201439 69.6882494,13.1894484 Z" id="XMLID_255_" fill="#952C28"></path>
                                <path d="M33.9568345,60.8633094 C33.2853717,61.1510791 32.5659472,61.4388489 31.8944844,61.7266187 C31.558753,61.8705036 31.7026379,62.3980815 32.0383693,62.2541966 C32.7098321,61.9664269 33.4292566,61.6786571 34.1007194,61.3908873 C34.4364508,61.2470024 34.2925659,60.7194245 33.9568345,60.8633094 Z" id="XMLID_113_" fill="#FFFFFF"></path>
                                <path d="M65.4676259,3.54916067 C63.0695444,4.60431655 60.911271,6.04316547 59.0407674,7.86570743 C58.8009592,8.10551559 59.1846523,8.53717026 59.4244604,8.24940048 C61.2470024,6.47482014 63.3573141,5.03597122 65.7074341,4.02877698 C66.0911271,3.88489209 65.8033573,3.40527578 65.4676259,3.54916067 Z" id="XMLID_77_" fill="#000000"></path>
                            </g>
                            <g id="Window_2" transform="translate(67.625899, 0.000000)">
                                <path d="M6.33093525,3.30935252 C6.33093525,4.94004796 4.98800959,6.28297362 3.35731415,6.28297362 C1.72661871,6.28297362 0.383693046,4.94004796 0.383693046,3.30935252 C0.383693046,1.67865707 1.72661871,0.335731415 3.35731415,0.335731415 C4.98800959,0.335731415 6.33093525,1.19904077 6.33093525,3.30935252 Z" id="XMLID_187_" fill="#FF4BA3"></path>
                                <path d="M16.5467626,3.30935252 C16.5467626,4.94004796 15.2038369,6.28297362 13.5731415,6.28297362 C11.942446,6.28297362 10.5995204,4.94004796 10.5995204,3.30935252 C10.5995204,1.67865707 11.942446,0.335731415 13.5731415,0.335731415 C15.2517986,0.335731415 16.5467626,1.19904077 16.5467626,3.30935252 Z" id="XMLID_186_" fill="#FF8D00"></path>
                                <path d="M27.0503597,3.30935252 C27.0503597,4.94004796 25.7074341,6.28297362 24.0767386,6.28297362 C22.4460432,6.28297362 21.1031175,4.94004796 21.1031175,3.30935252 C21.1031175,1.67865707 22.4460432,0.335731415 24.0767386,0.335731415 C25.7553957,0.335731415 27.0503597,1.19904077 27.0503597,3.30935252 Z" id="XMLID_185_" fill="#BAE2FC"></path>
                                <rect id="XMLID_83_" fill="#0079BC" x="0.287769784" y="8.48920863" width="155.731415" height="59.4244604"></rect>
                                <rect id="XMLID_2793_" fill="#F6CCAE" x="94.8201439" y="14.0047962" width="52.470024" height="26.0911271"></rect>
                                <rect id="XMLID_75_" fill="#FFFFFF" x="109.544365" y="51.0311751" width="37.9376499" height="11.17506"></rect>
                                <rect id="XMLID_74_" fill="#FFFFFF" x="86.4268585" y="51.0311751" width="19.0407674" height="11.17506"></rect>
                                <path d="M72.7577938,17.3141487 L10.0239808,17.3141487 C9.30455635,17.3141487 9.30455635,18.4172662 10.0239808,18.4172662 L72.7098321,18.4172662 C73.4772182,18.4652278 73.4772182,17.3141487 72.7577938,17.3141487 Z" id="XMLID_73_" fill="#BCD7FD"></path>
                                <path d="M72.7577938,25.2278177 L10.0239808,25.2278177 C9.30455635,25.2278177 9.30455635,26.3309353 10.0239808,26.3309353 L72.7098321,26.3309353 C73.4772182,26.3309353 73.4772182,25.2278177 72.7577938,25.2278177 Z" id="XMLID_72_" fill="#BCD7FD"></path>
                                <path d="M58.6091127,34.5803357 L9.92805755,34.5803357 C9.35251799,34.5803357 9.35251799,35.6834532 9.92805755,35.6834532 L58.6091127,35.6834532 C59.1366906,35.7314149 59.1366906,34.5803357 58.6091127,34.5803357 Z" id="XMLID_71_" fill="#BCD7FD"></path>
                                <path d="M172.565947,39.4724221 L171.7506,40.2877698 L170.935252,39.4724221 L160.047962,28.5851319 C159.520384,28.057554 160.335731,27.2901679 160.863309,27.7697842 L172.565947,39.4724221 Z" id="XMLID_67_" fill="#FF4BA3"></path>
                                <path d="M172.565947,39.4724221 L171.7506,40.2877698 L160.863309,51.1270983 C160.335731,51.6546763 159.568345,50.8393285 160.047962,50.3117506 L171.702638,38.6570743 L172.565947,39.4724221 Z" id="XMLID_66_" fill="#FF4BA3"></path>
                                <path d="M143.597122,35.2038369 C129.11271,29.2565947 114.580336,23.3093525 100.095923,17.4100719 C99.4244604,17.1223022 99.1366906,18.2254197 99.8081535,18.5131894 C114.292566,24.4604317 128.82494,30.4076739 143.309353,36.3069544 C143.932854,36.5467626 144.220624,35.4436451 143.597122,35.2038369 Z" id="XMLID_65_" fill="#FFFFFF"></path>
                                <path d="M100.28777,36.4028777 C114.724221,30.3597122 129.208633,24.2685851 143.645084,18.2254197 C144.316547,17.9376499 143.741007,16.9784173 143.117506,17.2182254 C128.681055,23.2613909 114.196643,29.352518 99.7601918,35.3956835 C99.0407674,35.6834532 99.616307,36.6906475 100.28777,36.4028777 Z" id="XMLID_64_" fill="#FFFFFF"></path>
                            </g>
                            <g id="Hand_2_" transform="translate(37.410072, 58.513189)">
                                <path d="M63.3573141,20.4316547 C55.5395683,35.5395683 38.9928058,68.6810552 38.9928058,68.6810552 C38.9928058,68.6810552 7.72182254,85.3717026 0.0479616307,92.7098321 L10.7913669,135.443645 C10.7913669,135.443645 52.2302158,101.390887 59.2326139,94.0047962 C69.0647482,83.6930456 76.9304556,42.8776978 81.1990408,26.8105516 C75.2997602,24.6043165 69.4004796,22.3021583 63.3573141,20.4316547 Z" id="XMLID_166_" fill="#FA922A"></path>
                                <path d="M39.088729,69.5923261 C38.7529976,70.9352518 38.4652278,72.2781775 38.1294964,73.6211031 C38.0335731,73.9568345 38.6091127,74.1007194 38.6570743,73.764988 C38.9928058,72.4220624 39.2805755,71.0791367 39.616307,69.736211 C39.7122302,69.4004796 39.1846523,69.2565947 39.088729,69.5923261 Z" id="XMLID_137_" fill="#FFFFFF"></path>
                                <path d="M98.6570743,9.11270983 C92.6139089,7.86570743 82.1103118,10.4556355 81.5827338,10.263789 C81.0551559,8.72901679 81.2470024,8.10551559 82.3980815,7.57793765 C84.5083933,6.52278177 86.235012,4.89208633 87.3860911,2.78177458 C88.0095923,1.63069544 86.9064748,-0.287769784 85.4676259,0.287769784 C82.5899281,1.48681055 79.7122302,2.68585132 76.882494,3.88489209 C76.7386091,3.93285372 76.5947242,4.02877698 76.498801,4.12470024 C74.676259,4.8441247 73.8609113,5.13189448 72.5659472,6.23501199 C70.3117506,8.20143885 68.5851319,10.5515588 67.2901679,13.2374101 C66.8105516,13.9568345 65.0839329,17.1702638 62.6858513,21.7745803 C66.0431655,23.6930456 69.8800959,24.7482014 73.4772182,25.9952038 C75.9232614,26.8585132 78.3693046,27.6738609 80.8633094,28.3932854 C82.0143885,23.8369305 82.9736211,20.8153477 83.5971223,20.3357314 C86.3788969,18.3213429 89.1127098,17.3141487 92.2302158,15.971223 C95.8273381,14.4364508 97.4100719,13.4292566 99.5203837,12.0383693 C100.479616,11.4148681 99.8081535,9.35251799 98.6570743,9.11270983 Z" id="XMLID_79_" fill="#952C28"></path>
                                <path d="M98.8009592,10.4556355 C95.58753,12.2302158 92.0383693,12.9976019 88.3453237,12.7577938 C87.9616307,12.7098321 87.9616307,13.2853717 88.3453237,13.3333333 C92.0863309,13.5731415 95.7793765,12.7577938 99.088729,10.9352518 C99.4244604,10.7913669 99.1366906,10.3117506 98.8009592,10.4556355 Z" id="XMLID_78_" fill="#000000"></path>
                            </g>
                            <g id="Finger" transform="translate(58.033573, 44.124700)">
                                <path d="M10.4076739,0.287769784 C7.86570743,1.77458034 3.88489209,4.26858513 2.15827338,6.76258993 C0.335731415,9.40047962 0,12.6139089 0.0479616307,15.7793765 C0.0959232614,17.5539568 2.30215827,17.8896882 3.117506,16.7865707 C3.50119904,16.9304556 3.88489209,16.9304556 4.26858513,16.6906475 C4.89208633,16.6426859 5.41966427,16.2589928 5.51558753,15.6354916 C6.85851319,14.2925659 7.76978417,12.6618705 7.91366906,10.647482 C8.10551559,8.63309353 7.8177458,7.57793765 9.44844125,6.04316547 C10.5035971,5.08393285 11.17506,4.50839329 11.5107914,3.117506 C11.8944844,1.67865707 11.7505995,-0.479616307 10.4076739,0.287769784 Z" id="XMLID_80_" fill="#952C28"></path>
                                <path d="M8.72901679,6.7146283 C8.96882494,6.47482014 8.58513189,6.04316547 8.34532374,6.33093525 L5.85131894,8.77697842 C5.75539568,8.87290168 5.75539568,9.01678657 5.80335731,9.11270983 C7.05035971,11.2230216 7.1942446,13.6690647 6.18705036,15.9232614 C6.04316547,16.2589928 6.52278177,16.5467626 6.66666667,16.2110312 C7.3381295,14.7242206 7.57793765,13.1414868 7.3381295,11.558753 C7.24220624,11.0791367 7.09832134,10.5515588 6.95443645,10.0719424 C6.90647482,9.92805755 6.57074341,9.35251799 6.57074341,9.20863309 C6.52278177,8.34532374 8.20143885,7.1942446 8.72901679,6.7146283 Z" id="XMLID_76_" fill="#000000"></path>
                            </g>
                        </g>
                        <g id="Head_1_" transform="translate(13.908873, 106.474820)">
                            <path d="M23.4052758,13.2853717 C23.4052758,9.16067146 29.5443645,4.74820144 34.4844125,4.02877698 C36.6426859,3.74100719 37.1223022,1.96642686 38.177458,3.40527578 C40.8153477,6.95443645 49.2565947,18.4652278 49.0167866,22.0143885 C48.5371703,28.2494005 41.1031175,29.7841727 36.1630695,27.5779376 C31.1270983,25.4196643 23.4532374,19.1846523 23.4052758,13.2853717 Z" id="XMLID_251_" fill="#952C28"></path>
                            <path d="M36.3549161,0.431654676 C34.1007194,0.623501199 31.7026379,3.35731415 30.9832134,5.13189448 C27.0503597,6.81055156 23.4532374,10.1678657 23.4532374,13.3333333 C23.4532374,17.2661871 19.5203837,23.8848921 24.5083933,29.352518 C27.5779376,32.7577938 35.6354916,31.7505995 38.3213429,27.3860911 C41.4868106,22.1582734 36.7865707,16.8345324 36.9784173,15.7793765 C37.8896882,12.7577938 35.971223,9.92805755 33.9568345,8.20143885 C35.5395683,8.24940048 38.6570743,5.41966427 38.7529976,3.54916067 C38.705036,0.815347722 37.0263789,0.335731415 36.3549161,0.431654676 Z" id="XMLID_250_" fill="#000000"></path>
                            <path d="M32.1342926,20.7673861 C31.558753,18.5131894 33.7170264,15.4916067 36.9784173,15.7314149 C38.4652278,17.793765 40.0479616,19.8081535 41.6786571,21.822542 C40.911271,23.117506 38.6570743,24.7482014 36.5947242,24.6522782 C34.1966427,24.5083933 32.7577938,23.2134293 32.1342926,20.7673861 Z" id="XMLID_249_" fill="#952C28"></path>
                            <path d="M45.1318945,11.4148681 C44.5083933,10.647482 43.3573141,10.6954436 42.6858513,11.4148681 C42.4940048,11.6546763 42.5419664,12.0383693 42.7817746,12.2302158 C42.8297362,12.2302158 42.8297362,12.2302158 42.8776978,12.2781775 C42.8297362,12.3741007 42.7817746,12.4220624 42.7338129,12.5179856 C42.3980815,13.1894484 43.4532374,13.6211031 43.7889688,12.9496403 C43.7889688,12.9496403 43.8369305,12.9496403 43.7889688,12.9976019 C43.4532374,13.4292566 43.9328537,14.1007194 44.4604317,13.9088729 C45.3717026,13.4772182 45.8033573,12.2302158 45.1318945,11.4148681 Z" id="XMLID_248_" fill="#952C28"></path>
                            <path d="M37.3141487,34.9640288 C36.498801,31.6067146 33.6211031,29.1127098 30.4076739,28.5371703 C30.4076739,27.529976 29.8800959,26.618705 28.5851319,26.3788969 C24.8441247,25.7074341 21.7266187,27.7697842 20.8153477,30.7913669 C15.0119904,29.1606715 8.63309353,30.0719424 4.26858513,34.676259 C-0.67146283,39.9040767 -0.959232614,47.5779376 3.5971223,53.1414868 C8.29736211,58.8489209 17.6498801,61.5827338 24.7482014,59.6642686 C29.7841727,58.3213429 33.4292566,52.3261391 31.0311751,48.057554 C35.3956835,45.1318945 38.6570743,40.4796163 37.3141487,34.9640288 Z" id="XMLID_163_" fill="#000000"></path>
                            <path d="M37.793765,19.7601918 C37.0743405,19.8561151 36.3549161,19.9040767 35.6354916,20 C35.2997602,20.0479616 35.2517986,20.6235012 35.6354916,20.5755396 C36.3549161,20.4796163 37.0743405,20.4316547 37.793765,20.3357314 C38.1294964,20.2877698 38.177458,19.7122302 37.793765,19.7601918 Z" id="XMLID_154_" fill="#000000"></path>
                            <path d="M42.3980815,11.3669065 L41.294964,9.97601918 C41.0551559,9.6882494 40.6714628,10.0719424 40.911271,10.3597122 C41.294964,10.8393285 41.6786571,11.3189448 42.0143885,11.7505995 C42.2541966,12.0383693 42.6378897,11.6546763 42.3980815,11.3669065 Z" id="XMLID_153_" fill="#000000"></path>
                            <path d="M46.4748201,18.4652278 C45.9952038,18.705036 45.4196643,18.5131894 45.1798561,18.0815348 C44.9880096,17.793765 44.5083933,18.0335731 44.7002398,18.3693046 C45.1318945,19.088729 46.0431655,19.3285372 46.7625899,18.9928058 C47.0983213,18.8009592 46.8105516,18.3213429 46.4748201,18.4652278 Z" id="XMLID_152_" fill="#000000"></path>
                            <path d="M39.7601918,8.20143885 L39.3285372,9.0647482 C38.9928058,9.6882494 40,10.263789 40.2877698,9.64028777 L40.7194245,8.77697842 C41.0551559,8.10551559 40.0959233,7.52997602 39.7601918,8.20143885 Z" id="XMLID_98_" fill="#000000"></path>
                        </g>
                    </g>
                    <g id="Man" transform="translate(247.961631, 163.069544)">
                        <path d="M1.58273381,101.582734 C3.117506,95.971223 6.95443645,90.4556355 9.73621103,87.7697842 C12.5659472,85.0839329 13.381295,107.194245 13.381295,107.194245 L1.58273381,101.582734 Z" id="Hand_1_" fill="#FFC597"></path>
                        <g id="Legs" transform="translate(0.000000, 105.035971)">
                            <g id="XMLID_276_">
                                <path d="M33.4292566,171.318945 C30.9352518,171.079137 28.441247,170.695444 25.9472422,170.359712 C25.2757794,170.263789 24.5083933,170.167866 23.7889688,170.119904 C23.6450839,174.436451 24.5083933,171.894484 24.5083933,175.203837 C24.5083933,180.095923 22.9736211,185.035971 22.206235,185.947242 C20.383693,188.201439 16.882494,187.865707 13.7170264,188.2494 C3.74100719,189.496403 0.767386091,188.82494 0.191846523,196.978417 L38.3213429,205.707434 C38.3213429,205.707434 43.501199,189.496403 47.7697842,172.134293 C42.9736211,171.894484 38.177458,171.798561 33.4292566,171.318945 Z" id="XMLID_2960_" fill="#FECBA9"></path>
                                <path d="M48.5371703,179.664269 C52.853717,163.309353 55.2997602,142.877698 54.5323741,133.860911 C54.5323741,133.860911 82.6378897,38.177458 91.4148681,7.72182254 C90.0719424,7.48201439 88.7769784,7.29016787 87.4340528,7.05035971 C80.5755396,5.89928058 73.7170264,4.79616307 66.9064748,3.50119904 C61.6786571,2.54196643 52.2302158,0.959232614 47.0023981,0.143884892 C33.5251799,41.1990408 28.3932854,106.666667 26.8585132,117.410072 C25.8513189,124.364508 22.0623501,155.635492 21.4868106,175.155875 C28.82494,176.930456 41.0071942,178.561151 48.5371703,179.664269 Z" id="XMLID_244_" fill="#78226A"></path>
                                <path d="M34.6282974,193.189448 C32.2781775,192.517986 30.0239808,191.510791 28.0095923,190.167866 C25.9952038,188.82494 24.2685851,187.098321 22.206235,185.899281 C20.383693,188.153477 16.882494,187.817746 13.7170264,188.201439 C3.74100719,189.448441 0.767386091,188.776978 0.191846523,196.930456 L38.3213429,205.659472 C38.3213429,205.659472 39.8081535,201.007194 41.822542,194.052758 C39.4244604,194.196643 36.9784173,193.860911 34.6282974,193.189448 Z" id="XMLID_243_" fill="#1F79B7"></path>
                            </g>
                            <g id="XMLID_277_" transform="translate(53.237410, 2.877698)">
                                <path d="M87.529976,167.577938 C80.6235012,170.935252 73.3333333,173.477218 66.1390887,176.16307 C68.82494,182.589928 69.6402878,187.290168 66.9544365,189.256595 C60.7673861,193.764988 53.1894484,190.935252 52.853717,202.781775 L70.5995204,202.781775 L91.7026379,190.647482 C90.3597122,181.77458 88.9688249,174.148681 87.529976,167.577938 Z" id="XMLID_2959_" fill="#FECBA9"></path>
                                <path d="M87.9136691,169.40048 C80.1438849,140.767386 73.381295,125.707434 73.381295,125.707434 C70.8393285,104.364508 56.498801,24.3165468 56.498801,24.3165468 L54.4844125,7.48201439 C47.7218225,6.37889688 41.0071942,5.27577938 34.2446043,4.17266187 C27.3860911,3.02158273 20.5275779,1.91846523 13.7170264,0.623501199 C12.9496403,0.479616307 12.2302158,0.335731415 11.4628297,0.191846523 L0.191846523,21.1510791 C0.191846523,21.1510791 30.9352518,97.3141487 39.616307,124.796163 C45.5635492,143.597122 57.2182254,165.467626 62.5419664,178.657074 C69.736211,176.402878 80.8633094,172.230216 87.9136691,169.40048 Z" id="XMLID_242_" fill="#78226A"></path>
                                <path d="M90.3597122,182.254197 C87.0983213,184.70024 83.3573141,185.707434 79.3285372,186.091127 C76.0191847,186.378897 71.8944844,185.755396 68.4892086,186.666667 C68.2973621,187.769784 67.7697842,188.681055 66.9544365,189.304556 C60.7673861,193.81295 53.1894484,190.983213 52.853717,202.829736 L70.5995204,202.829736 L91.7026379,190.695444 C91.2709832,187.721823 90.7913669,184.940048 90.3597122,182.254197 Z" id="XMLID_241_" fill="#1F79B7"></path>
                                <path d="M18.1294964,66.8585132 C16.498801,59.8561151 14.8681055,52.853717 13.1894484,45.8033573 C13.1414868,45.6594724 13.1414868,45.5635492 13.0935252,45.4196643 C13.0935252,45.323741 13.0935252,45.2278177 13.1414868,45.1798561 C13.3333333,45.2278177 13.4772182,45.323741 13.6690647,45.3717026 C13.7170264,45.6115108 13.764988,45.8033573 13.8129496,46.0431655 C15.3956835,52.9496403 17.0263789,59.8081535 18.6570743,66.7146283 C18.7529976,67.0503597 18.2254197,67.1942446 18.1294964,66.8585132 Z" id="XMLID_104_" fill="#000000"></path>
                                <path d="M13.8609113,46.0431655 C13.6690647,45.9472422 13.4292566,45.8992806 13.2374101,45.8033573 C11.3669065,45.1318945 9.54436451,44.41247 7.67386091,43.7410072 C7.3381295,43.5971223 7.48201439,43.0695444 7.8177458,43.2134293 L13.1894484,45.2278177 C13.381295,45.2757794 13.5251799,45.3717026 13.7170264,45.4196643 C13.764988,45.6115108 13.8129496,45.8033573 13.8609113,46.0431655 Z" id="XMLID_103_" fill="#000000"></path>
                            </g>
                        </g>
                        <g id="Body" transform="translate(41.247002, 37.889688)">
                            <path d="M73.8129496,25.2278177 C73.8129496,25.2278177 73.8129496,25.2278177 73.8129496,25.2278177 C73.0935252,38.9928058 68.1055156,91.7026379 68.1055156,91.7026379 L30.9352518,87.9616307 L12.7098321,71.17506 L4.31654676,41.7266187 L0.0479616307,26.6666667 C1.43884892,3.117506 6.57074341,-1.10311751 27.7697842,0.911270983 C28.4892086,0.959232614 29.2565947,1.05515588 30.0239808,1.15107914 C30.0239808,1.15107914 30.0239808,1.15107914 30.0239808,1.15107914 C31.17506,1.29496403 32.4220624,1.43884892 33.6690647,1.58273381 L33.6690647,1.58273381 C36.882494,1.96642686 40.383693,2.4940048 44.2685851,3.02158273 C44.2685851,3.02158273 45.2757794,3.69304556 46.9544365,4.74820144 C54.1007194,9.35251799 73.1414868,21.5827338 73.8129496,22.0143885 C73.9568345,22.1103118 73.9088729,23.2613909 73.8129496,25.2278177 Z" id="XMLID_234_" fill="#EF5CA1"></path>
                            <path d="M67.0983213,27.8657074 C59.6642686,45.4196643 56.5467626,55.1079137 48.9688249,72.5659472 C70.5035971,75.6834532 72.6139089,43.8369305 67.0983213,27.8657074 Z" id="XMLID_223_" fill="#000000"></path>
                        </g>
                        <g id="Window_1" transform="translate(9.592326, 56.594724)">
                            <rect id="XMLID_222_" fill="#BAE2FC" x="0.143884892" y="0.335731415" width="73.764988" height="73.5251799"></rect>
                            <rect id="XMLID_188_" fill="#FFFFFF" x="0.143884892" y="11.3189448" width="73.764988" height="1.10311751"></rect>
                            <circle id="XMLID_2833_" fill="#FF8D00" cx="6.81055156" cy="5.85131894" r="2.54196643"></circle>
                            <circle id="XMLID_2831_" fill="#FFFFFF" cx="14.3405276" cy="5.85131894" r="2.54196643"></circle>
                            <path d="M47.1942446,49.0647482 L11.1270983,49.0647482 C10.4076739,49.0647482 10.4076739,50.1678657 11.1270983,50.1678657 L47.1942446,50.1678657 C47.9136691,50.2158273 47.9136691,49.0647482 47.1942446,49.0647482 Z" id="XMLID_182_" fill="#000000"></path>
                            <path d="M47.1942446,55.2517986 L11.1270983,55.2517986 C10.4076739,55.2517986 10.4076739,56.3549161 11.1270983,56.3549161 L47.1942446,56.3549161 C47.9136691,56.4028777 47.9136691,55.2517986 47.1942446,55.2517986 Z" id="XMLID_181_" fill="#000000"></path>
                            <rect id="XMLID_180_" fill="#0079BC" x="10.5995204" y="17.2661871" width="50.4076739" height="25.8992806"></rect>
                            <rect id="XMLID_176_" fill="#FFFFFF" x="44.940048" y="63.6450839" width="13.1414868" height="5.4676259"></rect>
                            <path d="M55.58753,19.8081535 C54.2925659,20.6714628 52.9496403,21.4868106 51.6546763,22.3501199 C51.0311751,22.7338129 51.6067146,23.7410072 52.2302158,23.3093525 C53.5251799,22.4460432 54.8681055,21.6306954 56.1630695,20.7673861 C56.7865707,20.383693 56.2110312,19.4244604 55.58753,19.8081535 Z" id="XMLID_167_" fill="#FFFFFF"></path>
                        </g>
                        <g id="Palm" transform="translate(0.000000, 95.923261)">
                            <path d="M17.5059952,12.2781775 C18.8968825,12.6618705 20.7194245,10.9352518 19.3764988,9.64028777 C17.8417266,8.20143885 11.7026379,1.82254197 9.78417266,0.959232614 C1.15107914,-2.82973621 0.0959232614,10.7913669 0.431654676,13.6690647 C0.959232614,18.5611511 3.06954436,23.117506 6.28297362,26.7625899 C6.37889688,27.0503597 8.72901679,29.1127098 9.88009592,29.9280576 C10.7434053,30.5035971 12.1342926,29.8800959 12.3261391,28.82494 C13.3333333,29.1606715 15.8273381,27.7218225 15.2997602,26.235012 C15.6834532,25.9952038 16.7386091,25.6594724 16.9784173,24.8920863 C17.3141487,23.9328537 17.0263789,22.9736211 16.5947242,22.0143885 C16.882494,21.8705036 17.1223022,21.7266187 17.3621103,21.4388489 C18.8009592,19.8561151 16.498801,18.0335731 14.7721823,15.6354916 C13.4772182,13.8129496 13.0455635,11.3669065 11.8465228,10.2158273 C12.2302158,10.0719424 12.5659472,9.92805755 12.9016787,9.6882494 C14.1966427,10.8872902 15.7314149,11.7985612 17.5059952,12.2781775 Z" id="XMLID_97_" fill="#FFC9A4"></path>
                            <path d="M15.9232614,21.3429257 C13.1414868,19.1366906 10.9352518,16.4028777 9.35251799,13.2374101 C9.20863309,12.9016787 8.68105516,13.1894484 8.87290168,13.5251799 C10.5035971,16.7386091 12.7577938,19.4724221 15.5395683,21.7266187 C15.8273381,21.9664269 16.2110312,21.5827338 15.9232614,21.3429257 Z" id="XMLID_95_" fill="#FF4BA3"></path>
                            <path d="M14.7721823,24.9880096 C11.8465228,23.2613909 9.54436451,20.8153477 8.00959233,17.793765 C7.86570743,17.4580336 7.3381295,17.7458034 7.52997602,18.0815348 C9.0647482,21.1990408 11.4628297,23.7410072 14.4844125,25.4676259 C14.7721823,25.6594724 15.059952,25.1798561 14.7721823,24.9880096 Z" id="XMLID_91_" fill="#FF4BA3"></path>
                            <path d="M11.6067146,27.529976 C9.49640288,26.1390887 7.76978417,24.3645084 6.47482014,22.1582734 C6.28297362,21.822542 5.80335731,22.1103118 5.99520384,22.4460432 C7.3381295,24.7002398 9.11270983,26.618705 11.3189448,28.0095923 C11.6067146,28.2014388 11.8944844,27.7218225 11.6067146,27.529976 Z" id="XMLID_90_" fill="#FF4BA3"></path>
                        </g>
                        <g id="Hand" transform="translate(2.877698, 40.767386)">
                            <path d="M14.7721823,35.059952 C13.3333333,33.4292566 11.7026379,30.3597122 9.83213429,29.9760192 C5.27577938,29.0647482 1.34292566,29.4964029 0.767386091,30.0239808 C0.0479616307,30.7434053 0.575539568,31.8944844 1.39088729,32.6139089 C2.54196643,33.6211031 5.17985612,32.7577938 5.75539568,34.5803357 C5.75539568,34.6282974 5.75539568,34.6282974 5.80335731,34.676259 C4.41247002,34.3884892 3.26139089,34.2925659 2.39808153,34.4844125 C-0.67146283,35.1558753 0.143884892,41.3908873 1.05515588,47.0023981 C2.73381295,56.9784173 21.9184652,58.705036 21.9184652,58.705036 C21.9184652,58.705036 14.9160671,35.1079137 14.7721823,35.059952 Z" id="XMLID_183_" fill="#FFC79E"></path>
                            <path d="M112.182254,22.3501199 C112.182254,22.3501199 112.182254,22.3501199 112.182254,22.3501199 C111.606715,26.5707434 109.976019,31.6546763 107.146283,37.8417266 C93.764988,66.7625899 91.3669065,78.4652278 81.0551559,79.3764988 C75.1079137,79.9040767 66.5227818,76.8345324 51.6546763,71.3669065 C36.8345324,65.8992806 25.4196643,61.7266187 16.882494,58.5611511 C15.7793765,50.7913669 15.3956835,42.9256595 14.7242206,35.059952 C20.7673861,35.8273381 31.8944844,37.3141487 42.6858513,38.8489209 C53.9568345,40.4796163 64.7961631,42.1582734 68.82494,43.2134293 L91.6546763,13.381295 L84.5083933,2.87769784 L82.6378897,0.143884892 C83.8369305,0.287769784 85.0359712,0.479616307 86.1870504,0.623501199 C101.486811,2.82973621 114.436451,6.0911271 112.182254,22.3501199 Z" id="XMLID_179_" fill="#EF5CA1"></path>
                            <path d="M72.9976019,47.2422062 L70.1678657,44.41247 C69.9280576,44.1726619 69.4964029,44.5563549 69.7841727,44.7961631 C70.7434053,45.7553957 71.6546763,46.6666667 72.6139089,47.6258993 C72.853717,47.9136691 73.2374101,47.4820144 72.9976019,47.2422062 Z" id="XMLID_162_" fill="#000000"></path>
                            <path d="M83.2134293,22.9256595 C82.4940048,23.9808153 81.822542,25.0839329 81.1031175,26.1390887 C80.911271,26.4268585 81.3908873,26.7146283 81.5827338,26.4268585 C82.3021583,25.3717026 82.9736211,24.2685851 83.6930456,23.2134293 C83.9328537,22.9256595 83.4532374,22.6378897 83.2134293,22.9256595 Z" id="XMLID_105_" fill="#000000"></path>
                            <path d="M2.44604317,39.5683453 C2.06235012,38.9448441 1.72661871,38.2733813 1.34292566,37.6498801 C1.15107914,37.3141487 0.67146283,37.6019185 0.863309353,37.9376499 C1.2470024,38.5611511 1.58273381,39.2326139 1.96642686,39.8561151 C2.11031175,40.1918465 2.58992806,39.9040767 2.44604317,39.5683453 Z" id="XMLID_87_" fill="#FF4BA3"></path>
                            <path d="M2.4940048,44.7002398 C2.20623501,44.2685851 1.91846523,43.8369305 1.67865707,43.4052758 C1.48681055,43.117506 1.00719424,43.4052758 1.19904077,43.6930456 C1.48681055,44.1247002 1.77458034,44.5563549 2.01438849,44.9880096 C2.20623501,45.323741 2.68585132,45.0359712 2.4940048,44.7002398 Z" id="XMLID_86_" fill="#FF4BA3"></path>
                            <path d="M2.92565947,48.2494005 L2.15827338,47.2422062 C1.91846523,46.9544365 1.43884892,47.2422062 1.67865707,47.529976 L2.44604317,48.5371703 C2.68585132,48.82494 3.16546763,48.5371703 2.92565947,48.2494005 Z" id="XMLID_85_" fill="#FF4BA3"></path>
                            <path d="M7.86570743,35.1079137 C7.3381295,34.9160671 6.81055156,34.7242206 6.33093525,34.5803357 C5.99520384,34.4844125 5.85131894,35.0119904 6.18705036,35.1079137 C6.7146283,35.2997602 7.24220624,35.4916067 7.72182254,35.6354916 C8.05755396,35.7314149 8.20143885,35.2038369 7.86570743,35.1079137 Z" id="XMLID_84_" fill="#FF4BA3"></path>
                        </g>
                        <g id="Head" transform="translate(66.187050, 0.000000)">
                            <path d="M22.1103118,41.8705036 L16.6906475,21.294964 L3.50119904,25.0359712 C3.74100719,25.323741 4.79616307,36.6906475 5.4676259,43.7889688 C7.38609113,43.6450839 19.3764988,42.0623501 22.1103118,41.8705036 Z" id="XMLID_281_" fill="#F6CCAE"></path>
                            <path d="M12.470024,23.5971223 C12.5179856,23.0695444 12.5179856,22.5899281 12.5179856,22.0623501 L3.50119904,25.0359712 C3.64508393,25.1798561 4.02877698,28.8729017 4.46043165,33.2853717 C8.10551559,30.7913669 11.1270983,27.4820144 12.470024,23.5971223 Z" id="XMLID_246_" fill="#000000"></path>
                            <path d="M26.8585132,14.5323741 C27.3860911,10.4076739 21.7745803,5.22781775 16.9304556,3.93285372 C14.8201439,3.35731415 14.5803357,1.58273381 13.3333333,2.87769784 C10.263789,6.0911271 0.431654676,15.8752998 0.191846523,20.1918465 C-0.143884892,26.4748201 7.14628297,28.9208633 12.3741007,27.3381295 C17.6019185,25.7074341 26.0911271,20.4316547 26.8585132,14.5323741 Z" id="XMLID_2958_" fill="#F6CCAE"></path>
                            <path d="M15.4916067,0.0479616307 C17.7458034,0.527577938 19.7601918,3.54916067 20.2877698,5.41966427 C23.9808153,7.57793765 27.2422062,11.3669065 26.8105516,14.5803357 C26.2829736,18.5131894 22.3501199,22.206235 18.2254197,24.6522782 C17.3621103,23.117506 19.9520384,20.2398082 19.8081535,18.2254197 C17.0743405,13.5731415 17.5539568,11.7026379 18.705036,9.88009592 C17.1223022,9.73621103 12.5179856,4.74820144 12.6618705,2.87769784 C13.0455635,0.0959232614 14.8201439,-0.0959232614 15.4916067,0.0479616307 Z" id="XMLID_236_" fill="#0079BC"></path>
                            <path d="M24.028777,23.7889688 C24.8920863,21.5827338 23.0695444,18.3213429 19.8081535,18.177458 C18.0335731,20.0479616 16.2110312,21.8705036 14.3884892,23.6930456 C14.9640288,25.0839329 17.0743405,27.0023981 19.1366906,27.146283 C21.4868106,27.2422062 23.117506,26.1870504 24.028777,23.7889688 Z" id="XMLID_2945_" fill="#F6CCAE"></path>
                            <path d="M21.6306954,21.9664269 C20.8633094,21.822542 20.1438849,21.7266187 19.3764988,21.5827338 C19.0407674,21.5347722 18.8489209,22.0623501 19.2326139,22.1103118 C20,22.2541966 20.7194245,22.3501199 21.4868106,22.4940048 C21.8705036,22.5419664 22.0143885,22.0143885 21.6306954,21.9664269 Z" id="XMLID_161_" fill="#FF4BA3"></path>
                            <path d="M8.77697842,8.48920863 C8.39328537,8.92086331 7.9616307,9.30455635 7.57793765,9.73621103 C7.3381295,9.97601918 7.72182254,10.4076739 7.9616307,10.1199041 C8.34532374,9.6882494 8.77697842,9.30455635 9.16067146,8.87290168 C9.44844125,8.63309353 9.01678657,8.20143885 8.77697842,8.48920863 Z" id="XMLID_160_" fill="#000000"></path>
                            <path d="M13.381295,12.7098321 C12.9976019,13.1414868 12.5659472,13.5251799 12.1822542,13.9568345 C11.942446,14.1966427 12.3261391,14.6282974 12.5659472,14.3405276 C12.9496403,13.9088729 13.381295,13.5251799 13.764988,13.0935252 C14.0047962,12.853717 13.6211031,12.4220624 13.381295,12.7098321 Z" id="XMLID_157_" fill="#000000"></path>
                            <path d="M8.15347722,14.3405276 C7.76978417,14.1966427 7.24220624,14.0527578 7.00239808,13.6690647 C6.85851319,13.381295 6.90647482,12.9976019 7.24220624,12.9496403 C7.57793765,12.9016787 7.43405276,12.3741007 7.09832134,12.4220624 C6.52278177,12.5179856 6.28297362,13.1414868 6.37889688,13.6690647 C6.52278177,14.3884892 7.3381295,14.676259 7.9616307,14.8681055 C8.34532374,15.0119904 8.48920863,14.4844125 8.15347722,14.3405276 Z" id="XMLID_156_" fill="#FF4BA3"></path>
                            <path d="M10.3597122,21.8705036 C9.97601918,22.4460432 9.16067146,22.6858513 8.48920863,22.3980815 C8.15347722,22.2541966 7.86570743,22.7338129 8.20143885,22.8776978 C9.16067146,23.3093525 10.263789,22.9736211 10.8393285,22.1103118 C11.0311751,21.8705036 10.5515588,21.5827338 10.3597122,21.8705036 Z" id="XMLID_155_" fill="#FF4BA3"></path>
                            <path d="M22.8776978,41.3908873 C22.5899281,41.822542 22.3501199,42.206235 22.0143885,42.6378897 C21.7266187,42.9736211 21.4868106,43.3093525 21.1990408,43.6450839 C19.1846523,45.9472422 16.5947242,47.7218225 13.6211031,48.6330935 C10.3597122,49.5923261 6.61870504,49.3045564 4.2206235,46.6666667 C2.20623501,44.4604317 1.77458034,41.4388489 2.82973621,38.8009592 C3.54916067,38.8489209 9.20863309,38.9928058 9.20863309,38.9928058 C12.4220624,39.3764988 15.4916067,40.3357314 19.3285372,40.911271 C20.5275779,41.0551559 21.6786571,41.1990408 22.8776978,41.3908873 Z" id="XMLID_2812_" fill="#F6CCAE"></path>
                            <path d="M15.7314149,11.4628297 L15.2997602,10.5995204 C14.9640288,9.92805755 14.0047962,10.5035971 14.3405276,11.17506 L14.7721823,12.0383693 C15.059952,12.6618705 16.0671463,12.1342926 15.7314149,11.4628297 Z" id="XMLID_100_" fill="#0079C2"></path>
                            <path d="M10.5515588,7.05035971 C10.2158273,6.81055156 9.88009592,6.57074341 9.54436451,6.33093525 C9.30455635,6.13908873 8.92086331,6.28297362 8.77697842,6.52278177 C8.63309353,6.81055156 8.72901679,7.09832134 8.96882494,7.29016787 C9.30455635,7.52997602 9.64028777,7.76978417 9.97601918,8.00959233 C10.2158273,8.20143885 10.5995204,8.05755396 10.7434053,7.8177458 C10.9352518,7.57793765 10.8393285,7.24220624 10.5515588,7.05035971 Z" id="XMLID_99_" fill="#0079C2"></path>
                        </g>
                    </g>
                </g>
            </g>
        </g>
    </g>
</svg>